<svg width="500" height="554" viewBox="0 0 500 554" fill="none" xmlns="http://www.w3.org/2000/svg">
<g clip-path="url(#clip0_67_331)">
<path d="M500 0H0V553.631H500V0Z" fill="white"/>
<path d="M386.018 209.03C386.018 285.703 323.866 347.859 247.196 347.859C170.53 347.859 108.381 285.703 108.381 209.03C108.381 132.369 170.527 70.2207 247.196 70.2207C323.866 70.2207 386.018 132.369 386.018 209.03Z" fill="black"/>
<path d="M307.893 121.582C293.792 122.065 281.483 129.85 272.317 140.592C262.168 152.387 255.426 166.362 250.557 180.642C241.859 173.508 235.153 164.278 221.191 160.263C210.401 157.162 199.072 158.439 188.651 166.201C183.72 169.887 180.317 175.454 178.7 180.704C174.512 194.313 183.101 206.436 187.002 210.78L195.535 219.917C197.29 221.711 201.53 226.384 199.455 233.082C197.228 240.377 188.438 245.087 179.426 242.318C175.398 241.082 169.616 238.085 170.913 233.87C171.445 232.139 172.683 230.837 173.349 229.362C173.953 228.073 174.247 227.117 174.433 226.54C176.079 221.172 173.827 214.179 168.072 212.399C162.698 210.751 157.203 212.058 155.072 218.971C152.653 226.827 156.416 241.087 176.559 247.29C200.161 254.555 220.116 241.699 222.95 224.949C224.735 214.456 219.993 206.652 211.314 196.629L204.238 188.8C199.955 184.521 198.485 177.224 202.918 171.617C206.661 166.884 211.988 164.87 220.718 167.241C233.465 170.696 239.141 179.54 248.616 186.674C244.71 199.513 242.148 212.397 239.837 223.949L238.416 232.565C231.644 268.09 226.47 287.602 213.03 298.803C210.322 300.731 206.45 303.612 200.619 303.82C197.554 303.912 196.567 301.805 196.525 300.884C196.458 298.743 198.265 297.756 199.465 296.795C201.265 295.815 203.98 294.189 203.792 288.983C203.599 282.835 198.502 277.501 191.141 277.743C185.624 277.929 177.218 283.117 177.535 292.622C177.859 302.441 187.007 309.795 200.804 309.33C208.178 309.077 224.648 306.082 240.874 286.793C259.762 264.676 265.047 239.33 269.022 220.776L273.46 196.278C275.916 196.573 278.557 196.773 281.423 196.842C304.948 197.34 316.71 185.159 316.889 176.293C317.01 170.929 313.374 165.644 308.277 165.771C304.636 165.872 300.059 168.3 298.965 173.337C297.886 178.275 306.448 182.738 299.757 187.082C295.005 190.157 286.488 192.32 274.488 190.565L276.668 178.506C281.121 155.639 286.614 127.516 307.45 126.827C308.973 126.756 314.522 126.892 314.653 130.57C314.688 131.79 314.384 132.112 312.948 134.919C311.483 137.107 310.933 138.978 311.005 141.117C311.203 146.949 315.641 150.79 322.072 150.568C330.668 150.28 333.134 141.914 332.993 137.615C332.631 127.503 321.98 121.117 307.893 121.582Z" fill="white"/>
<path d="M298.735 405.657C312.755 405.657 322.163 415.79 322.163 429.805C322.163 443.018 312.577 453.959 298.735 453.959C284.807 453.959 275.215 443.018 275.215 429.805C275.218 415.79 284.624 405.657 298.735 405.657ZM298.735 447.087C308.681 447.087 313.114 438.043 313.114 429.805C313.114 421.035 307.782 412.531 298.735 412.531C289.604 412.531 284.265 421.035 284.265 429.805C284.267 438.043 288.696 447.087 298.735 447.087Z" fill="black"/>
<path d="M274.052 409.949V406.738H261.839V402.355C261.839 396.114 262.743 391.404 270.067 391.404C270.208 391.404 270.347 391.414 270.488 391.419C270.503 391.419 270.503 391.399 270.523 391.399C272.547 391.55 274.24 389.892 274.357 387.86L274.508 385.075C272.787 384.8 270.973 384.528 268.807 384.528C256.238 384.528 253.342 391.857 253.342 403.077V406.738H242.483V410.32C242.758 412.176 244.349 413.607 246.287 413.607C246.297 413.607 246.307 413.617 246.317 413.617H253.342V452.872H258.027C258.037 452.872 258.032 452.867 258.042 452.867C259.985 452.867 261.582 451.411 261.842 449.535V413.614H270.347C272.354 413.55 273.961 411.951 274.052 409.949Z" fill="black"/>
<path d="M160.795 406.738C160.778 406.738 160.77 406.748 160.75 406.748C158.956 406.748 157.221 407.981 156.466 409.644L144.763 444.917H144.582L133.139 409.664C132.391 407.991 130.646 406.748 128.844 406.748C128.827 406.748 128.82 406.738 128.8 406.738H122.872L138.52 449.798C139.067 451.335 140.151 453.689 140.151 454.681C140.151 455.585 137.617 466.08 130.015 466.08C129.827 466.08 129.639 466.06 129.451 466.045C127.513 465.939 126.047 467.293 125.721 469.377L125.49 472.32C127.028 472.59 128.57 472.954 131.285 472.954C142.498 472.954 145.847 462.728 149.013 453.867L166.02 406.736H160.795V406.738Z" fill="black"/>
<path d="M106.74 416.112C99.7154 412.52 92.0347 410.077 91.8986 402.852C91.9209 395.169 98.9753 393.154 104.413 393.164C104.436 393.159 104.46 393.159 104.47 393.159C106.832 393.159 108.72 393.392 110.562 393.798C110.589 393.798 110.584 393.768 110.614 393.768C112.562 393.909 114.196 392.384 114.428 390.466L114.582 387.676C111.02 386.793 107.292 386.342 104.052 386.342C92.2278 386.414 83.453 392.367 83.4233 403.714C83.4382 413.639 90.1288 417.481 97.3194 420.969C104.376 424.357 112.102 427.162 112.168 435.347C112.124 443.894 103.881 447.048 98.1981 447.055C94.8738 447.045 91.2649 446.214 88.2278 445.256C86.3219 444.941 84.76 446.624 84.5149 448.847L84.2575 451.332C88.4357 452.686 92.7204 453.86 97.0273 453.86C97.0273 453.86 97.0322 453.86 97.0397 453.86C97.0521 453.86 97.062 453.86 97.0818 453.86C110.324 453.763 120.614 448.483 120.654 434.773C120.634 424.191 113.901 419.753 106.74 416.112Z" fill="black"/>
<path d="M235.346 452.875C235.351 452.875 235.351 452.87 235.356 452.87C237.193 452.87 238.72 451.587 239.114 449.862V423.298C239.114 413.256 234.864 405.657 223.096 405.657C218.938 405.657 211.978 408.011 208.812 414.615C206.366 408.37 201.032 405.657 195.695 405.657C188.908 405.657 184.297 408.097 181.044 413.436H180.861V410.57C180.832 408.456 179.126 406.751 177.007 406.751C176.993 406.751 176.983 406.741 176.968 406.741H172.898V452.877H177.502C177.507 452.877 177.507 452.872 177.512 452.872C179.643 452.872 181.371 451.147 181.371 449.018C181.371 448.961 181.391 448.936 181.403 448.897V429.632C181.403 421.035 184.837 412.533 193.52 412.533C200.393 412.533 201.757 419.679 201.757 425.377V452.875H206.423C206.428 452.875 206.428 452.87 206.438 452.87C208.448 452.87 210.079 451.328 210.257 449.365V429.63C210.257 421.033 213.695 412.531 222.376 412.531C229.25 412.531 230.609 419.677 230.609 425.375V452.872L235.346 452.875Z" fill="black"/>
<path d="M366.743 452.875C366.752 452.875 366.752 452.87 366.757 452.87C368.827 452.87 370.5 451.236 370.596 449.191V425.469C370.596 413.078 365.255 405.657 353.314 405.657C346.893 405.657 340.75 408.823 338.21 414.073H338.032V410.625C338.032 410.62 338.022 410.62 338.022 410.61C338.022 408.479 336.297 406.746 334.168 406.746C334.148 406.746 334.139 406.736 334.124 406.736H329.792V452.872H334.468C334.468 452.872 334.468 452.867 334.478 452.867C336.497 452.867 338.141 451.3 338.302 449.318V431.523C338.302 420.313 342.648 412.528 352.322 412.528C359.743 412.983 362.087 418.229 362.087 428.988V452.87H366.743V452.875Z" fill="black"/>
<path d="M412.515 406.738C412.5 406.738 412.495 406.748 412.47 406.748C410.681 406.748 408.941 407.981 408.188 409.644L396.493 444.917H396.305L384.862 409.664C384.112 407.991 382.366 406.748 380.564 406.748C380.55 406.748 380.54 406.738 380.525 406.738H374.597L390.245 449.798C390.787 451.335 391.879 453.689 391.879 454.681C391.879 455.585 389.342 466.08 381.74 466.08C381.552 466.08 381.364 466.06 381.173 466.045C379.24 465.939 377.775 467.293 377.446 469.377L377.218 472.32C378.755 472.59 380.297 472.954 383.005 472.954C394.225 472.954 397.572 462.728 400.738 453.867L417.745 406.736H412.515V406.738Z" fill="black"/>
</g>
<defs>
<clipPath id="clip0_67_331">
<rect width="500" height="553.629" fill="white"/>
</clipPath>
</defs>
</svg>
