<svg width="1364" height="1365" viewBox="0 0 1364 1365" fill="none" xmlns="http://www.w3.org/2000/svg">
<path d="M637.271 0.367075C634.338 0.633716 625.006 1.56696 616.606 2.23356C422.892 19.6985 241.443 124.222 126.521 284.873C62.5272 374.197 21.5979 475.521 6.13273 582.844C0.666602 620.307 0 631.372 0 682.167C0 732.962 0.666602 744.028 6.13273 781.491C43.1958 1037.6 225.445 1252.78 472.621 1332.5C516.883 1346.77 563.545 1356.5 616.606 1362.37C637.271 1364.63 726.596 1364.63 747.26 1362.37C838.851 1352.24 916.444 1329.57 992.97 1290.51C1004.7 1284.51 1006.97 1282.91 1005.37 1281.58C1004.3 1280.78 954.307 1213.72 894.313 1132.66L785.257 985.338L648.603 783.091C573.411 671.902 511.55 580.977 511.017 580.977C510.483 580.844 509.95 670.702 509.684 780.424C509.284 972.539 509.15 980.271 506.751 984.804C503.284 991.337 500.618 994.003 495.018 996.936C490.752 999.07 487.019 999.47 466.888 999.47H443.823L437.691 995.603C433.691 993.07 430.758 989.737 428.758 985.871L425.958 979.871L426.225 712.564L426.625 445.124L430.758 439.924C432.891 437.124 437.424 433.525 440.624 431.792C446.09 429.125 448.223 428.859 471.287 428.859C498.485 428.859 503.018 429.925 510.084 437.658C512.083 439.791 586.076 551.247 674.601 685.5C763.126 819.754 884.18 1003.07 943.641 1093.06L1051.63 1256.64L1057.1 1253.04C1105.49 1221.58 1156.69 1176.79 1197.22 1130.12C1283.47 1031.07 1339.07 910.278 1357.73 781.491C1363.2 744.028 1363.87 732.962 1363.87 682.167C1363.87 631.372 1363.2 620.307 1357.73 582.844C1320.67 326.735 1138.42 111.556 891.246 31.8307C847.651 17.6987 801.255 7.96633 749.26 2.10024C736.461 0.767036 648.337 -0.699487 637.271 0.367075ZM916.444 412.86C922.843 416.06 928.043 422.193 929.909 428.592C930.976 432.058 931.242 506.184 930.976 673.235L930.576 912.945L888.313 848.151L845.917 783.357V609.108C845.917 496.452 846.451 433.125 847.251 430.058C849.384 422.593 854.05 416.726 860.449 413.26C865.916 410.46 867.915 410.194 888.847 410.194C908.578 410.194 912.044 410.46 916.444 412.86Z" fill="black"/>
</svg>
